HIERARCHY
ROOT Hips
{
  OFFSET 0.000000 0.000000 0.000000
  CHANNELS 6 Xposition Yposition Zposition Xrotation Yrotation Zrotation
  JOINT Spine
  {
    OFFSET -2.721785 23.846754 2.011942
    CHANNELS 3 Xrotation Yrotation Zrotation
    JOINT Chest
    {
      OFFSET -2.721785 23.846754 2.011942
      CHANNELS 3 Xrotation Yrotation Zrotation
      JOINT Neck
      {
        OFFSET 0.000000 3.794168 0.000000
        CHANNELS 3 Xrotation Yrotation Zrotation
        JOINT Head
        {
          OFFSET 0.000000 3.616294 0.000000
          CHANNELS 3 Xrotation Yrotation Zrotation
          End Site
          {
            OFFSET 0.000000 1.084888 0.000000
          }
        }
      }
      JOINT LeftCollar
      {
        OFFSET 3.000000 4.000000 0.000000
        CHANNELS 3 Xrotation Yrotation Zrotation
        JOINT LeftShoulder
        {
          OFFSET 14.869504 1.490289 -6.285599
          CHANNELS 3 Xrotation Yrotation Zrotation
          JOINT LeftArm
          {
            OFFSET 8.240244 -5.869636 -13.075080
            CHANNELS 3 Xrotation Yrotation Zrotation
            JOINT LeftForeArm
            {
              OFFSET -11.957707 3.691441 -10.565373
              CHANNELS 3 Xrotation Yrotation Zrotation
              JOINT LeftHand
              {
                OFFSET -4.140924 1.948982 -1.245566
                CHANNELS 3 Xrotation Yrotation Zrotation
                End Site
                {
                  OFFSET -1.242277 0.584695 -0.373670
                }
              }
            }
          }
        }
      }
      JOINT RightCollar
      {
        OFFSET -3.000000 4.000000 0.000000
        CHANNELS 3 Xrotation Yrotation Zrotation
        JOINT RightShoulder
        {
          OFFSET -14.869504 -1.490289 6.285599
          CHANNELS 3 Xrotation Yrotation Zrotation
          JOINT RightArm
          {
            OFFSET -1.922670 -23.388141 -12.917531
            CHANNELS 3 Xrotation Yrotation Zrotation
            JOINT RightForeArm
            {
              OFFSET 2.003331 14.137387 -21.097828
              CHANNELS 3 Xrotation Yrotation Zrotation
              JOINT RightHand
              {
                OFFSET 3.010116 6.425109 -4.530513
                CHANNELS 3 Xrotation Yrotation Zrotation
                End Site
                {
                  OFFSET 0.903035 1.927533 -1.359154
                }
              }
            }
          }
        }
      }
    }
  }
  JOINT LeftUpLeg
  {
    OFFSET 9.506946 0.418498 -0.262008
    CHANNELS 3 Xrotation Yrotation Zrotation
    JOINT LeftLeg
    {
      OFFSET 11.960976 -40.825369 -9.870072
      CHANNELS 3 Xrotation Yrotation Zrotation
      JOINT LeftFoot
      {
        OFFSET 15.497771 -39.189824 4.980190
        CHANNELS 3 Xrotation Yrotation Zrotation
        End Site
        {
          OFFSET 4.649331 -11.756947 1.494057
        }
      }
    }
  }
  JOINT RightUpLeg
  {
    OFFSET -9.506946 -0.418498 0.262008
    CHANNELS 3 Xrotation Yrotation Zrotation
    JOINT RightLeg
    {
      OFFSET -10.786019 -28.000506 0.300963
      CHANNELS 3 Xrotation Yrotation Zrotation
      JOINT RightFoot
      {
        OFFSET -6.553627 -40.114717 19.325346
        CHANNELS 3 Xrotation Yrotation Zrotation
        End Site
        {
          OFFSET -1.966088 -12.034415 5.797604
        }
      }
    }
  }
}
MOTION
Frames: 11
Frame Time: 0.083333
0.054381 0.247942 0.125641 -28.934377 -4.467469 -6.688693 0.000000 0.000000 0.000000 3.003427 15.831175 -0.077860 -47.016322 -7.744056 2.704711 0.000000 0.000000 0.000000 25.722878 -23.343051 -3.749250 -34.031002 2.124088 -2.799640 40.200333 -2.752597 8.073034 -0.051966 13.076851 -14.488753 0.000000 0.000000 0.000000 25.722878 -23.343051 -3.749250 3.461204 15.983755 14.676502 -11.322734 -4.511939 -5.384451 1.954889 0.892859 -6.146946 0.000000 0.000000 0.000000 25.521829 6.865418 0.436437 4.234706 0.308610 -1.150740 0.000000 0.000000 0.000000 0.000000 0.000000 0.000000 0.000000 0.000000 0.000000 0.000000 0.000000 0.000000
0.054524 0.248433 0.124022 -29.175275 -4.499346 -6.634725 0.000000 0.000000 0.000000 3.013270 15.815654 -0.175338 -46.783015 -7.855920 2.675996 0.000000 0.000000 0.000000 26.011501 -23.338076 -3.739817 -34.131653 2.371381 -2.825660 40.547521 -2.860520 7.898315 -0.393611 13.261091 -14.197254 0.000000 0.000000 0.000000 26.011501 -23.338076 -3.739817 3.500582 16.054623 14.761115 -11.191497 -4.589332 -5.527316 1.806492 0.958360 -6.094080 0.000000 0.000000 0.000000 25.759854 6.884525 0.325743 4.262034 0.320060 -1.123366 0.000000 0.000000 0.000000 0.000000 0.000000 0.000000 0.000000 0.000000 0.000000 0.000000 0.000000 0.000000
0.055265 0.247197 0.122539 -29.392949 -4.498528 -6.440534 0.000000 0.000000 0.000000 3.080660 15.435342 -0.826669 -47.088333 -8.636491 2.176667 0.000000 0.000000 0.000000 26.494259 -23.313139 -3.683788 -34.652499 3.707218 -2.896674 43.787000 -2.541548 4.647281 -3.372240 13.865428 -12.974100 0.000000 0.000000 0.000000 26.494259 -23.313139 -3.683788 3.339591 16.328853 15.513064 -9.666715 -5.252959 -6.603498 1.328087 1.633049 -5.254469 0.000000 0.000000 0.000000 26.057919 6.799699 0.150200 4.248855 0.324855 -1.190257 0.000000 0.000000 0.000000 0.000000 0.000000 0.000000 0.000000 0.000000 0.000000 0.000000 0.000000 0.000000
0.056357 0.244538 0.118962 -28.088222 -4.243420 -6.339222 0.000000 0.000000 0.000000 3.281120 13.549547 -2.344046 -48.080754 -10.529944 1.480381 0.000000 0.000000 0.000000 25.905631 -23.203365 -3.582416 -35.624521 6.841737 -2.162416 48.667032 -1.959622 -0.652496 -8.837893 13.800974 -9.094862 0.000000 0.000000 0.000000 25.905631 -23.203365 -3.582416 3.217503 17.496316 16.909891 -7.278323 -6.366129 -8.755845 0.322859 2.941035 -3.528261 0.000000 0.000000 0.000000 24.851720 6.398329 0.309691 4.080114 0.214006 -1.524624 0.000000 0.000000 0.000000 0.000000 0.000000 0.000000 0.000000 0.000000 0.000000 0.000000 0.000000 0.000000
0.057383 0.243469 0.108629 -25.382676 -3.846276 -6.762136 0.000000 0.000000 0.000000 3.443681 11.191391 -3.548986 -49.784682 -12.621988 0.572760 0.000000 0.000000 0.000000 23.901116 -23.058399 -3.530866 -35.859796 9.849462 -0.307141 51.047428 -0.745846 -5.038466 -13.153969 12.599300 -5.900144 0.000000 0.000000 0.000000 23.901116 -23.058399 -3.530866 3.334288 18.627343 18.314364 -5.723160 -6.024254 -10.419135 0.378213 3.401565 -2.023740 0.000000 0.000000 0.000000 22.242966 6.041842 1.229477 3.348790 -0.236222 -2.365931 0.000000 0.000000 0.000000 0.000000 0.000000 0.000000 0.000000 0.000000 0.000000 0.000000 0.000000 0.000000
0.058353 0.246864 0.091203 -32.603726 -5.104481 -6.572238 0.000000 0.000000 0.000000 3.246149 13.506577 -3.342384 -43.869801 -13.991621 -0.744459 0.000000 0.000000 0.000000 31.362326 -23.034231 -3.479053 -35.716124 11.901397 0.107779 51.345577 -2.229632 -4.323074 -14.614568 16.286347 -6.552877 0.000000 0.000000 0.000000 31.362326 -23.034231 -3.479053 4.820982 18.104973 19.765147 -6.067167 -2.454489 -10.523983 0.656427 1.139656 -3.250486 0.000000 0.000000 0.000000 29.381863 7.691031 -0.687205 2.879326 -0.601635 -2.361714 0.000000 0.000000 0.000000 0.000000 0.000000 0.000000 0.000000 0.000000 0.000000 0.000000 0.000000 0.000000
0.059814 0.251447 0.075603 -37.104636 -5.993406 -6.890209 0.000000 0.000000 0.000000 3.045616 15.482101 -3.283410 -41.966637 -15.291270 -1.355527 0.000000 0.000000 0.000000 36.090998 -23.038113 -3.330322 -36.664042 10.979705 0.163469 54.093186 -2.573519 -6.751572 -16.518718 16.455161 -6.793085 0.000000 0.000000 0.000000 36.090998 -23.038113 -3.330322 4.807669 17.673106 21.636476 -6.732258 0.515798 -10.040311 0.657022 -0.335195 -4.295879 0.000000 0.000000 0.000000 33.808459 8.959125 -1.985705 3.124762 -0.545434 -1.760828 0.000000 0.000000 0.000000 0.000000 0.000000 0.000000 0.000000 0.000000 0.000000 0.000000 0.000000 0.000000
0.061250 0.254366 0.067856 -38.305836 -6.393358 -7.578614 0.000000 0.000000 0.000000 2.891966 16.008158 -3.285780 -42.114203 -16.249081 -1.435189 0.000000 0.000000 0.000000 37.592825 -22.993877 -3.238746 -38.122230 10.199853 0.105066 57.546961 -2.599657 -10.063878 -18.980871 15.285308 -5.445707 0.000000 0.000000 0.000000 37.592825 -22.993877 -3.238746 3.905297 18.319280 22.328894 -6.593020 0.600320 -9.730788 0.086622 -0.256125 -4.289788 0.000000 0.000000 0.000000 34.927093 9.830589 -2.293544 3.246387 -0.527825 -1.055196 0.000000 0.000000 0.000000 0.000000 0.000000 0.000000 0.000000 0.000000 0.000000 0.000000 0.000000 0.000000
0.062510 0.253943 0.067505 -38.698906 -6.524690 -7.790453 0.000000 0.000000 0.000000 2.842744 16.132609 -3.282384 -42.462881 -16.675286 -1.680135 0.000000 0.000000 0.000000 38.092465 -22.972627 -3.219918 -38.648912 8.967573 0.201050 59.612450 -3.471295 -13.288985 -20.638293 14.283414 -4.057644 0.000000 0.000000 0.000000 38.092465 -22.972627 -3.219918 3.086063 18.796121 22.248094 -6.492274 -0.851733 -9.941588 -0.148634 0.560494 -4.058387 0.000000 0.000000 0.000000 35.221129 10.134972 -2.632725 3.313263 -0.515170 -0.278748 0.000000 0.000000 0.000000 0.000000 0.000000 0.000000 0.000000 0.000000 0.000000 0.000000 0.000000 0.000000
0.063807 0.250356 0.074416 -37.864703 -6.366177 -7.796625 0.000000 0.000000 0.000000 2.853398 15.955290 -2.924038 -43.782416 -16.564015 -2.375314 0.000000 0.000000 0.000000 37.040580 -23.002094 -3.267120 -38.620233 7.760234 -0.236311 60.205017 -5.053567 -14.434459 -20.545357 14.690656 -5.248552 0.000000 0.000000 0.000000 37.040580 -23.002094 -3.267120 2.358259 18.509742 21.990065 -5.783098 -1.962334 -10.230947 -0.405672 1.260533 -3.635115 0.000000 0.000000 0.000000 34.434825 9.960527 -2.275401 3.037324 -0.626374 -0.322266 0.000000 0.000000 0.000000 0.000000 0.000000 0.000000 0.000000 0.000000 0.000000 0.000000 0.000000 0.000000
0.064991 0.245317 0.084447 -36.224200 -5.963223 -7.418201 0.000000 0.000000 0.000000 2.894985 16.154753 -1.997994 -46.646885 -14.755958 -2.721159 0.000000 0.000000 0.000000 34.664225 -23.131838 -3.366284 -37.511436 6.609249 -1.478970 58.469821 -4.819476 -12.936930 -18.674419 14.859035 -6.230076 0.000000 0.000000 0.000000 34.664225 -23.131838 -3.366284 2.175208 16.609888 21.981614 -4.287444 -2.003150 -10.884995 -0.390762 1.668822 -2.830048 0.000000 0.000000 0.000000 33.002429 9.273763 -1.560664 2.459105 -0.828913 -0.977700 0.000000 0.000000 0.000000 0.000000 0.000000 0.000000 0.000000 0.000000 0.000000 0.000000 0.000000 0.000000
